<?xml version="1.0" standalone="no"?>
<!DOCTYPE svg PUBLIC "-//W3C//DTD SVG 20010904//EN"
 "http://www.w3.org/TR/2001/REC-SVG-20010904/DTD/svg10.dtd">
<svg version="1.0" xmlns="http://www.w3.org/2000/svg"
 width="401.000000pt" height="371.000000pt" viewBox="0 0 401.000000 371.000000"
 preserveAspectRatio="xMidYMid meet">

<g transform="translate(0.000000,371.000000) scale(0.100000,-0.100000)"
fill="#000000" stroke="none">
<path d="M2135 3643 c-104 -12 -244 -70 -345 -143 -53 -38 -173 -162 -190
-195 -8 -17 -22 -39 -31 -50 -9 -11 -25 -41 -35 -67 -17 -44 -34 -62 -34 -38
0 11 -65 77 -125 125 -47 38 -127 84 -170 97 -165 52 -259 59 -384 29 -248
-59 -421 -220 -507 -471 -15 -43 -19 -84 -19 -190 0 -123 3 -142 28 -212 29
-79 81 -175 117 -213 11 -12 20 -24 20 -28 0 -4 -34 -7 -75 -7 -112 0 -184
-44 -232 -142 l-23 -45 0 -892 c0 -868 1 -893 20 -936 22 -49 67 -97 114 -123
29 -16 124 -17 1394 -17 l1364 0 24 30 c13 16 26 41 29 56 8 35 -21 93 -54
111 -21 11 -266 14 -1346 18 l-1320 5 0 855 0 855 1295 3 c712 1 1305 0 1317
-3 l23 -5 2 -606 3 -606 30 -24 c17 -14 155 -109 309 -212 375 -252 355 -239
405 -263 44 -21 45 -21 79 -3 73 39 68 -30 66 868 -2 894 3 825 -66 859 -36
17 -72 10 -127 -26 -20 -13 -63 -41 -96 -63 -33 -21 -62 -41 -65 -44 -15 -15
-71 -50 -80 -50 -5 0 -10 -4 -10 -10 0 -5 -5 -10 -10 -10 -6 0 -16 -5 -23 -10
-31 -27 -138 -100 -146 -100 -5 0 -14 -7 -21 -15 -7 -8 -16 -15 -21 -15 -4 0
-9 84 -11 188 -3 171 -5 191 -26 234 -28 56 -60 90 -113 117 -33 18 -58 21
-149 21 -61 0 -110 2 -110 6 0 3 14 19 31 37 39 41 109 147 139 212 12 28 26
58 31 68 18 35 39 174 39 257 0 218 -85 415 -245 568 -45 42 -94 84 -110 92
-17 8 -32 18 -35 21 -8 10 -143 71 -180 81 -84 23 -247 33 -345 21z m288 -238
c17 -8 37 -15 46 -16 9 0 30 -9 46 -20 17 -10 40 -23 51 -28 27 -12 122 -104
156 -151 63 -87 107 -223 108 -331 0 -111 -57 -280 -117 -345 -13 -14 -23 -27
-23 -30 0 -12 -94 -90 -141 -115 -16 -9 -34 -21 -41 -26 -37 -26 -227 -68
-274 -59 -10 2 -41 7 -69 10 -68 10 -146 39 -211 81 -58 37 -154 127 -154 143
0 6 -4 12 -8 14 -15 6 -63 100 -83 162 -25 80 -26 249 -3 321 35 104 78 178
147 249 57 58 162 126 196 126 9 0 22 5 28 11 30 30 288 33 346 4z m-1343
-226 c143 -48 239 -131 297 -257 31 -69 34 -82 34 -177 0 -88 -4 -111 -27
-171 -33 -81 -33 -81 -104 -153 -127 -129 -322 -171 -485 -103 -42 17 -98 52
-103 65 -2 4 -8 7 -12 7 -13 0 -70 57 -70 70 0 5 -4 10 -8 10 -5 0 -25 33 -45
73 -61 124 -61 268 0 394 15 32 35 65 43 74 8 9 26 30 40 47 14 17 31 31 38
32 6 0 12 5 12 10 0 6 7 10 15 10 8 0 15 3 15 8 0 9 81 47 145 66 55 17 156
15 215 -5z m581 -841 c21 -26 39 -49 39 -52 0 -3 -52 -6 -115 -6 -63 0 -115 4
-115 9 0 5 4 11 8 13 10 4 72 96 72 107 0 4 6 13 13 20 10 10 17 7 35 -16 13
-15 41 -49 63 -75z m2009 -1139 l0 -551 -37 23 c-59 35 -128 83 -131 92 -2 4
-8 7 -12 7 -5 0 -26 11 -47 25 -21 14 -46 31 -57 38 -10 6 -29 20 -41 30 -13
9 -28 17 -33 17 -6 0 -12 3 -14 8 -1 4 -22 20 -45 36 l-43 29 0 248 0 249 28
17 c15 9 64 42 110 72 46 31 91 61 100 66 9 6 19 13 22 16 3 3 12 8 20 12 8 4
49 31 90 61 41 30 78 55 83 55 4 1 7 -247 7 -550z"/>
<path d="M1232 1775 c-72 -31 -71 -30 -72 -322 l0 -261 26 -31 c30 -36 78 -48
129 -31 56 19 65 47 65 209 l0 141 25 -10 c13 -5 53 -27 88 -50 35 -22 69 -40
75 -40 6 0 12 -4 14 -9 3 -7 55 -38 148 -87 19 -11 37 -22 40 -25 6 -7 51 -32
102 -56 44 -21 47 -30 16 -43 -13 -6 -36 -19 -53 -30 -16 -11 -48 -29 -70 -40
-22 -11 -53 -29 -70 -40 -48 -30 -70 -43 -122 -70 -26 -14 -50 -27 -53 -30 -8
-8 -42 -28 -90 -52 -25 -13 -47 -26 -50 -29 -3 -4 -45 -29 -95 -57 -130 -73
-156 -130 -94 -205 26 -32 36 -37 73 -37 37 0 71 16 227 107 101 58 204 117
229 131 25 14 61 35 80 47 19 12 42 25 50 28 8 4 29 16 45 27 17 11 37 23 45
27 8 4 42 23 75 43 33 20 67 39 75 43 8 4 29 16 45 27 17 11 41 26 56 34 36
21 64 76 55 111 -10 40 -62 86 -147 130 -39 20 -95 52 -125 71 -29 19 -64 39
-76 44 -13 6 -32 16 -42 22 -71 46 -126 78 -135 78 -5 0 -16 6 -23 13 -13 13
-37 27 -108 64 -19 10 -41 24 -48 31 -7 6 -19 12 -27 12 -7 0 -15 3 -17 8 -8
19 -214 127 -232 122 0 -1 -16 -7 -34 -15z"/>
</g>
</svg>
